<?xml version="1.0" standalone="no"?>
<!DOCTYPE svg PUBLIC "-//W3C//DTD SVG 20010904//EN"
 "http://www.w3.org/TR/2001/REC-SVG-20010904/DTD/svg10.dtd">
<svg version="1.0" xmlns="http://www.w3.org/2000/svg"
 width="386.000000pt" height="386.000000pt" viewBox="0 0 386.000000 386.000000"
 preserveAspectRatio="xMidYMid meet">
<metadata>
Created by potrace 1.14, written by Peter Selinger 2001-2017
</metadata>
<g transform="translate(0.000000,386.000000) scale(0.100000,-0.100000)"
fill="#000000" stroke="none">
<path d="M3702 2510 c0 -8 6 -31 13 -50 7 -19 13 -28 13 -20 0 8 -6 31 -13 50
-7 19 -13 28 -13 20z"/>
<path d="M3740 2371 c0 -6 4 -13 10 -16 6 -3 7 1 4 9 -7 18 -14 21 -14 7z"/>
<path d="M834 2279 c-22 -44 -4 -106 57 -189 64 -88 137 -137 262 -175 66 -20
215 -18 255 3 12 7 31 17 42 22 117 59 147 79 182 124 79 100 97 167 56 206
-28 26 -60 25 -117 -1 -93 -42 -107 -48 -161 -59 -55 -12 -228 -9 -305 5 -22
4 -49 14 -60 21 -11 8 -25 14 -32 14 -7 0 -34 14 -60 30 -63 40 -98 40 -119
-1z"/>
<path d="M2188 2299 c-28 -16 -33 -71 -11 -120 34 -76 132 -180 204 -216 135
-67 258 -84 345 -48 20 8 43 15 50 15 23 0 143 78 189 123 53 51 95 125 95
166 0 37 -34 71 -70 71 -28 0 -91 -19 -100 -29 -3 -3 -21 -13 -40 -22 -113
-53 -384 -48 -488 9 -126 68 -139 72 -174 51z"/>
<path d="M3761 2254 c0 -11 3 -14 6 -6 3 7 2 16 -1 19 -3 4 -6 -2 -5 -13z"/>
<path d="M3776 2190 c8 -43 14 -51 14 -19 0 13 -5 31 -10 39 -7 11 -8 5 -4
-20z"/>
<path d="M3791 2014 c0 -11 3 -14 6 -6 3 7 2 16 -1 19 -3 4 -6 -2 -5 -13z"/>
<path d="M3793 1940 c0 -30 2 -43 4 -27 2 15 2 39 0 55 -2 15 -4 2 -4 -28z"/>
<path d="M3776 1709 c-8 -42 0 -50 9 -9 4 17 5 34 2 36 -2 3 -7 -10 -11 -27z"/>
<path d="M1630 1608 c-85 -4 -184 -10 -220 -13 -36 -2 -71 -4 -78 -4 -24 -2
-239 -226 -283 -296 -89 -141 -104 -180 -104 -276 0 -99 10 -117 82 -150 47
-21 174 -26 253 -8 25 5 75 13 111 18 37 5 72 12 78 15 14 9 114 22 311 41
123 12 188 12 315 4 88 -5 170 -14 183 -20 13 -5 40 -9 62 -9 21 0 51 -5 67
-11 15 -6 53 -15 83 -19 30 -5 75 -14 100 -20 25 -7 90 -13 145 -14 83 -1 106
2 130 18 56 35 65 54 65 141 0 151 -74 290 -248 465 l-108 107 -104 6 c-58 4
-150 11 -205 16 -155 15 -464 19 -635 9z"/>
<path d="M3761 1604 c0 -11 3 -14 6 -6 3 7 2 16 -1 19 -3 4 -6 -2 -5 -13z"/>
<path d="M3751 1554 c0 -11 3 -14 6 -6 3 7 2 16 -1 19 -3 4 -6 -2 -5 -13z"/>
<path d="M3741 1514 c0 -11 3 -14 6 -6 3 7 2 16 -1 19 -3 4 -6 -2 -5 -13z"/>
<path d="M3731 1468 c0 -9 -4 -25 -7 -35 -5 -17 -5 -17 6 0 6 10 9 25 7 35 -4
15 -5 15 -6 0z"/>
</g>
</svg>
